<svg width="17" height="18" viewBox="0 0 17 18" fill="none" xmlns="http://www.w3.org/2000/svg">
<mask id="path-1-outside-1_134_20" maskUnits="userSpaceOnUse" x="-1" y="-1" width="19" height="20" fill="black">
<rect fill="white" x="-1" y="-1" width="19" height="20"/>
<path d="M0.25 0.499999H2.75L8 11.125C8.13333 11.3417 8.24167 11.6 8.325 11.9C8.39167 12.15 8.43333 12.3083 8.45 12.375H8.55C8.56667 12.3083 8.60833 12.15 8.675 11.9C8.75833 11.6 8.86667 11.3417 9 11.125L14.25 0.499999H16.75V18H14.25V7C14.25 6.73333 14.2667 6.28333 14.3 5.65L14.35 4.875H14.25L14.025 5.65C13.975 5.78333 13.9 6 13.8 6.3C13.7 6.58333 13.6 6.81667 13.5 7L9.5 14.875H7.5L3.5 7C3.4 6.81667 3.3 6.58333 3.2 6.3C3.1 6 3.025 5.78333 2.975 5.65L2.75 4.875H2.65L2.7 5.65C2.73333 6.28333 2.75 6.73333 2.75 7V18H0.25V0.499999Z"/>
</mask>
<path d="M0.25 0.499999V-0.500001H-0.75V0.499999H0.25ZM2.75 0.499999L3.64653 0.0570092L3.3713 -0.500001H2.75V0.499999ZM8 11.125L7.10347 11.568L7.12403 11.6096L7.14834 11.6491L8 11.125ZM8.325 11.9L9.29129 11.6423L9.28852 11.6324L8.325 11.9ZM8.45 12.375L7.47986 12.6175L7.66922 13.375H8.45V12.375ZM8.55 12.375V13.375H9.33078L9.52014 12.6175L8.55 12.375ZM8.675 11.9L7.71143 11.6323L7.70877 11.6423L8.675 11.9ZM9 11.125L9.85166 11.6491L9.87597 11.6096L9.89653 11.568L9 11.125ZM14.25 0.499999V-0.500001H13.6287L13.3535 0.0570092L14.25 0.499999ZM16.75 0.499999H17.75V-0.500001H16.75V0.499999ZM16.75 18V19H17.75V18H16.75ZM14.25 18H13.25V19H14.25V18ZM14.3 5.65L13.302 5.58561L13.3014 5.59744L14.3 5.65ZM14.35 4.875L15.3479 4.93938L15.4166 3.875H14.35V4.875ZM14.25 4.875V3.875H13.499L13.2897 4.59619L14.25 4.875ZM14.025 5.65L14.9613 6.00113L14.9747 5.96543L14.9853 5.92881L14.025 5.65ZM13.8 6.3L14.743 6.63282L14.7459 6.62455L14.7487 6.61623L13.8 6.3ZM13.5 7L12.6221 6.52114L12.6151 6.53404L12.6084 6.54713L13.5 7ZM9.5 14.875V15.875H10.1137L10.3916 15.3279L9.5 14.875ZM7.5 14.875L6.60842 15.3279L6.88633 15.875H7.5V14.875ZM3.5 7L4.39158 6.54713L4.38493 6.53404L4.3779 6.52115L3.5 7ZM3.2 6.3L2.25132 6.61623L2.25409 6.62455L2.25701 6.63282L3.2 6.3ZM2.975 5.65L2.01465 5.92881L2.02528 5.96542L2.03867 6.00112L2.975 5.65ZM2.75 4.875L3.71035 4.59619L3.50097 3.875H2.75V4.875ZM2.65 4.875V3.875H1.5834L1.65207 4.93938L2.65 4.875ZM2.7 5.65L3.69869 5.59744L3.69793 5.58562L2.7 5.65ZM2.75 18V19H3.75V18H2.75ZM0.25 18H-0.75V19H0.25V18ZM0.25 1.5H2.75V-0.500001H0.25V1.5ZM1.85347 0.942988L7.10347 11.568L8.89653 10.682L3.64653 0.0570092L1.85347 0.942988ZM7.14834 11.6491C7.22302 11.7705 7.29785 11.9386 7.36148 12.1676L9.28852 11.6324C9.18548 11.2614 9.04364 10.9129 8.85166 10.6009L7.14834 11.6491ZM7.35877 12.1577C7.4261 12.4102 7.46549 12.5601 7.47986 12.6175L9.42014 12.1325C9.40117 12.0566 9.35723 11.8898 9.29124 11.6423L7.35877 12.1577ZM8.45 13.375H8.55V11.375H8.45V13.375ZM9.52014 12.6175C9.53451 12.5601 9.5739 12.4102 9.64124 12.1577L7.70877 11.6423C7.64277 11.8898 7.59883 12.0566 7.57986 12.1325L9.52014 12.6175ZM9.63852 12.1676C9.70215 11.9386 9.77698 11.7705 9.85166 11.6491L8.14834 10.6009C7.95636 10.9129 7.81452 11.2614 7.71148 11.6324L9.63852 12.1676ZM9.89653 11.568L15.1465 0.942988L13.3535 0.0570092L8.10347 10.682L9.89653 11.568ZM14.25 1.5H16.75V-0.500001H14.25V1.5ZM15.75 0.499999V18H17.75V0.499999H15.75ZM16.75 17H14.25V19H16.75V17ZM15.25 18V7H13.25V18H15.25ZM15.25 7C15.25 6.76225 15.2653 6.33559 15.2986 5.70256L13.3014 5.59744C13.268 6.23107 13.25 6.70441 13.25 7H15.25ZM15.2979 5.71438L15.3479 4.93938L13.3521 4.81062L13.3021 5.58562L15.2979 5.71438ZM14.35 3.875H14.25V5.875H14.35V3.875ZM13.2897 4.59619L13.0647 5.37119L14.9853 5.92881L15.2103 5.15381L13.2897 4.59619ZM13.0887 5.29887C13.0317 5.45086 12.9517 5.68262 12.8513 5.98377L14.7487 6.61623C14.8483 6.31737 14.9183 6.1158 14.9613 6.00113L13.0887 5.29887ZM12.857 5.96718C12.7678 6.22001 12.6881 6.40009 12.6221 6.52114L14.3779 7.47885C14.5119 7.23324 14.6322 6.94665 14.743 6.63282L12.857 5.96718ZM12.6084 6.54713L8.60842 14.4221L10.3916 15.3279L14.3916 7.45286L12.6084 6.54713ZM9.5 13.875H7.5V15.875H9.5V13.875ZM8.39158 14.4221L4.39158 6.54713L2.60842 7.45286L6.60842 15.3279L8.39158 14.4221ZM4.3779 6.52115C4.31187 6.40009 4.23223 6.22001 4.14299 5.96718L2.25701 6.63282C2.36778 6.94665 2.48813 7.23324 2.6221 7.47885L4.3779 6.52115ZM4.14868 5.98377C4.0483 5.68262 3.96833 5.45086 3.91133 5.29888L2.03867 6.00112C2.08168 6.1158 2.1517 6.31738 2.25132 6.61623L4.14868 5.98377ZM3.93535 5.37119L3.71035 4.59619L1.78965 5.15381L2.01465 5.92881L3.93535 5.37119ZM2.75 3.875H2.65V5.875H2.75V3.875ZM1.65207 4.93938L1.70207 5.71438L3.69793 5.58562L3.64793 4.81062L1.65207 4.93938ZM1.70138 5.70256C1.7347 6.33559 1.75 6.76225 1.75 7H3.75C3.75 6.70441 3.73197 6.23107 3.69862 5.59744L1.70138 5.70256ZM1.75 7V18H3.75V7H1.75ZM2.75 17H0.25V19H2.75V17ZM1.25 18V0.499999H-0.75V18H1.25Z" fill="white" mask="url(#path-1-outside-1_134_20)"/>
</svg>
